<svg width="19" height="19" viewBox="0 0 19 19" fill="none" xmlns="http://www.w3.org/2000/svg">
<path d="M18.5 14C18.5 15.1027 17.6417 16.221 15.9846 17.0931C14.3507 17.953 12.0589 18.5 9.5 18.5C6.94111 18.5 4.64928 17.953 3.01536 17.0931C1.35835 16.221 0.5 15.1027 0.5 14C0.5 12.8973 1.35835 11.779 3.01536 10.9069C4.64928 10.047 6.94111 9.5 9.5 9.5C12.0589 9.5 14.3507 10.047 15.9846 10.9069C17.6417 11.779 18.5 12.8973 18.5 14Z" fill="black" stroke="white"/>
<circle cx="9.27222" cy="5" r="5" fill="white"/>
<path d="M10.25 15.0106C9.90088 15.798 8.78598 15.8051 8.42687 15.0222L4.50824 6.47918C4.20554 5.81927 4.68481 5.0669 5.41081 5.06228L13.1389 5.01306C13.8649 5.00843 14.3538 5.75464 14.0595 6.41835L10.25 15.0106Z" fill="white"/>
<circle cx="9.27222" cy="5" r="3" fill="black"/>
<circle cx="9.27222" cy="5" r="1" fill="white"/>
</svg>
